<?xml version="1.0" encoding="UTF-8" standalone="no"?>
<!-- Created with Inkscape (http://www.inkscape.org/) -->

<svg
   version="1.1"
   id="svg1"
   width="633"
   height="685"
   viewBox="0 0 633 685"
   sodipodi:docname="Gemini_Generated_Image_9tmi049tmi049tmi_Inkscape(odstranění_letokruhů8).svg"
   inkscape:version="1.4.2 (f4327f4, 2025-05-13)"
   inkscape:export-filename="Gemini_Generated_Image_9tmi049tmi049tmi_Inkscape(odstranění_letokruhů7-bílé pozadí).png"
   inkscape:export-xdpi="1064.5627"
   inkscape:export-ydpi="1064.5627"
   xmlns:inkscape="http://www.inkscape.org/namespaces/inkscape"
   xmlns:sodipodi="http://sodipodi.sourceforge.net/DTD/sodipodi-0.dtd"
   xmlns="http://www.w3.org/2000/svg"
   xmlns:svg="http://www.w3.org/2000/svg">
  <defs
     id="defs1" />
  <sodipodi:namedview
     id="namedview1"
     pagecolor="#ffffff"
     bordercolor="#000000"
     borderopacity="0.25"
     inkscape:showpageshadow="2"
     inkscape:pageopacity="0.0"
     inkscape:pagecheckerboard="0"
     inkscape:deskcolor="#d1d1d1"
     showgrid="false"
     inkscape:zoom="2"
     inkscape:cx="230.5"
     inkscape:cy="374"
     inkscape:window-width="3840"
     inkscape:window-height="2054"
     inkscape:window-x="-11"
     inkscape:window-y="-11"
     inkscape:window-maximized="1"
     inkscape:current-layer="g2"
     inkscape:export-bgcolor="#090909ff" />
  <g
     inkscape:groupmode="layer"
     inkscape:label="Image"
     id="g1">
    <g
       id="g2"
       transform="translate(-153.5,-116.5)">
      <path
         style="fill:#000000"
         d="m 441.52464,799.10607 c -6.05,-1.04222 -15.5,-2.40073 -21,-3.01891 -18.81639,-2.11491 -61.11324,-12.4105 -83.28546,-23.46639 -11.41994,-5.6944 -33.2714,-22.8022 -43.29275,-30.55463 -4.27517,-3.30724 -11.1755,-10.01367 -15.33406,-14.90318 -4.15857,-4.88951 -11.81481,-12.3114 -17.01388,-16.49309 -14.32273,-11.51999 -27.78254,-28.95862 -37.85592,-49.0464 -3.05162,-6.08539 -8.79583,-16.43539 -12.7649,-23 -13.84338,-22.89615 -18.69824,-34.55508 -22.45919,-53.93567 -1.28078,-6.6 -3.51874,-15.53745 -4.97326,-19.86099 -4.7375,-14.08224 -3.7963,-48.59614 -0.328,-66.96223 1.03863,-5.5 -0.46941,-14.86194 -0.1103,-23.18098 0.7088,-16.41944 2.90773,-28.15841 7.95307,-41.72748 6.08105,-16.35464 7.88284,-21.41437 10.95671,-30.76832 3.7189,-11.31681 8.91124,-21.25237 16.90317,-32.34424 3.23202,-4.48567 6.67241,-9.73076 7.64532,-11.65576 4.06459,-8.04221 22.25454,-35.11113 28.80475,-42.86507 5.26057,-6.2273 11.20569,-11.47227 23.26321,-20.52351 8.90821,-6.68715 19.27686,-13.94787 23.04146,-16.13493 3.7646,-2.18707 12.4053,-8.1475 19.20157,-13.2454 14.97125,-11.22998 18.63569,-13.42361 29.90065,-17.89932 13.1732,-5.23388 41.3418,-14.78366 53.74781,-18.22168 14.76998,-4.09315 22.3238,-5.52809 53.29289,-6.93148 28.57508,-1.2949 35.03801,-0.0455 49.37495,3.88326 4.03269,1.10509 13.39297,2.91972 20.80062,4.03251 18.49663,2.7786 35.64891,8.69315 62.53151,21.56252 37.1304,17.77521 49.93645,20.00958 82.86325,50.53406 25.2326,23.39153 22.94375,29.67261 40.07045,55.61566 11.3703,17.22345 15.4674,25.59632 22.8486,46.69338 2.5016,7.15 5.5381,15.20668 6.7478,17.90372 2.2862,5.09704 8.72122,40.52227 12.16682,54.30948 4.2219,16.89313 5.03558,43.36085 2.86698,59.82306 -0.6495,4.93006 -4.36002,12.53163 -5.65282,17.75663 -1.2929,5.225 -1.21348,16.28211 -2.41618,23.70711 -2.6892,16.60171 -5.5397,25.80108 -13.0059,41.97481 -3.1801,6.88885 -6.996,15.45019 -8.4798,19.02519 -3.3528,8.07796 -13.9455,28.67719 -16.3924,31.87755 -1.8158,2.37499 -1.8185,2.36909 -2.5183,-5.5 -0.5927,-6.66555 -2.4821,-15.84306 -5.1447,-24.98955 -0.4083,-1.4024 0.7856,-4.89748 3.5535,-10.4025 6.475,-12.87802 11.857,-25.72694 14.4451,-34.4855 1.3001,-4.4 3.5142,-11.17185 4.9202,-15.04856 2.4641,-6.79394 3.96403,-23.21247 6.11693,-40.82902 2.9099,-23.80982 1.99547,-66.57583 -4.98633,-88.62242 -1.3063,-4.125 -3.5659,-11.97167 -5.0214,-17.43705 -3.4312,-12.88444 -7.5444,-22.70415 -19.5037,-46.56295 -11.3082,-22.55989 -17.8308,-38.76347 -32.1388,-54.43243 -15.9333,-17.44886 -50.3584,-42.7716 -66.602,-52.63235 -11.8965,-7.22181 -52.56174,-22.46209 -78.23727,-29.32128 -18.1921,-4.86 -55.70548,-9.36413 -65.34272,-9.3604 -22.02594,0.009 -41.34769,4.05673 -53.70464,7.25873 -13.1255,3.40116 -30.3808,10.18923 -49.85598,19.61287 -21.11321,10.21625 -33.94978,18.10838 -47.44328,29.16888 -6.03721,4.94865 -9.26557,6.82572 -14,8.14004 -26.13121,7.25426 -45.53716,28.82418 -49.54614,55.07104 -0.73324,4.80052 -2.37734,8.41121 -8.19618,18 -8.58911,14.15389 -14.57904,26.62385 -20.51456,42.70765 -5.60811,15.19659 -6.72265,19.66096 -11.5238,46.15929 -3.59535,19.84332 -1.59317,24.34776 -2.10331,43.62796 -0.70246,26.54864 -2.19801,35.83578 4.22113,63.5 6.68894,28.82694 10.92303,38.90715 27.93267,66.5 4.2381,6.875 9.84735,16.3532 12.46499,21.06266 7.4321,13.37125 12.09493,18.89073 32.80701,38.83429 21.7127,20.90705 29.09854,26.80209 42.21111,33.691 5.00153,2.62764 17.51489,7.72268 22.18989,10.89021 17.2991,11.72091 52.39377,24.46228 92.40381,31.64895 13.01474,2.33773 41.55779,1.67839 61.64597,-1.424 20.14964,-3.11189 23.34809,-3.79106 33.50328,-7.11412 4.20709,-1.37667 12.24993,-3.66926 17.87299,-5.09463 14.89983,-3.77692 35.38453,-12.81413 50.73143,-22.38115 l 6.2537,-3.89845 7.2476,2.30154 c 3.9862,1.26584 10.9595,2.84429 15.4963,3.50766 4.5368,0.66337 8.2487,1.36259 8.2487,1.55382 0,1.63213 -22.52842,11.07519 -43.85102,21.67275 -21.861,10.86515 -26.53088,16.66652 -62.64895,25.20886 -32.15887,7.60595 -45.4585,9.55469 -64.47473,9.44721 -11.29818,-0.0639 -20.00467,-0.69278 -27.52527,-1.98833 z m 18.75,-32.02015 c -51.56051,1.50832 -105.30587,-28.13848 -149.21496,-54.01887 -34.87123,-20.55339 -52.59976,-55.66183 -70.10029,-91.37925 -16.98293,-34.66102 -24.95848,-69.38765 -24.91742,-108.49387 0.0438,-41.72235 7.33898,-73.8434 25.21117,-111.00613 l 6.9733,-14.5 1.3732,3.82639 c 1.31656,3.66857 2.77469,4.46851 -1.31024,10.91079 -20.596,32.48163 -22.78617,71.96171 -22.74644,113.23296 0.0341,35.41035 3.17071,64.75294 17.37486,96.58511 23.12247,51.81856 58.17187,92.98059 113.76799,116.14153 32.73264,13.63618 65.76331,32.18993 103.21383,29.53828 38.88512,-2.75323 79.78251,-6.38979 117.80457,-23.17828 12.7083,-5.6113 15.5167,-6.5221 17.25,-5.59445 1.1387,0.60942 2.0704,1.57351 2.0704,2.14243 0,0.56891 -4.6366,3.22146 -10.3035,5.89456 -29.26397,13.80375 -53.88292,21.20124 -84.69647,25.44955 -10.79621,1.48848 -21.36121,3.85281 -41.75,4.44925 z m 166.24997,-32.31913 c -15.2806,-3.52508 -29.3358,-11.76203 -44.3501,-25.99101 -8.837,-8.37489 -9.1831,-8.58798 -13.9462,-8.58798 -13.88452,0 -33.16126,-18.9256 -33.1939,-32.5893 -0.01,-4.08322 -0.0622,-4.13821 -35.25977,-36.9744 -19.3875,-18.08681 -38.61246,-36.12573 -42.72214,-40.0865 -7.40995,-7.14145 -7.45652,-7.21865 -5.59501,-9.27559 1.03242,-1.14082 2.28555,-2.07421 2.78474,-2.07421 0.77488,0 32.68796,29.52737 72.14315,66.75 5.97564,5.6375 11.39063,10.25 12.03333,10.25 0.64269,0 3.85445,-2.73414 7.13723,-6.07586 3.28279,-3.34173 7.18385,-6.71673 8.66904,-7.5 3.83543,-2.02276 10.19833,-1.76306 15.09793,0.61621 l 4.2017,2.04035 2.3042,-2.65905 2.3041,-2.65904 -9.4136,-8.83501 c -10.1271,-9.50455 -12.36942,-13.02268 -10.84906,-17.02152 1.21376,-3.19249 23.60196,-26.56906 27.25476,-28.45799 4.7964,-2.48031 6.5954,-1.73614 15.8392,6.55191 7.1392,6.40103 9.549,8 12.0572,8 4.699,0 7.2576,-1.6562 6.0486,-3.91527 -3.5668,-6.66451 -3.0843,-15.28553 1.1051,-19.74486 l 2.1982,-2.33987 -2.4244,-2.59719 c -1.3333,-1.42846 -21.1836,-20.18027 -44.1117,-41.67071 l -41.68738,-39.07352 1.46309,-2.82929 c 0.80469,-1.55611 1.74834,-2.82929 2.09699,-2.82929 0.34865,0 3.14959,2.36496 6.22432,5.25546 43.64008,41.02538 81.63638,76.4107 82.74098,77.05539 0.9283,0.54178 2.7641,-0.3659 5.5321,-2.73521 2.2785,-1.95034 5.5729,-3.81436 7.3208,-4.14227 4.4764,-0.83978 11.0706,1.17702 17.242,5.27337 13.3174,8.83959 21.6506,25.87101 16.779,34.29326 -0.7953,1.375 -1.7447,3.08312 -2.1098,3.79582 -0.4104,0.80108 1.9856,4.04634 6.2757,8.5 16.4892,17.11822 24.2732,35.56849 24.5557,58.20418 0.1641,13.15129 -1.1454,19.35257 -6.3352,30 -7.1421,14.653 -22.0901,27.92365 -36.7049,32.58628 -8.54,2.72455 -24.2567,3.44187 -32.706,1.49271 z m 26.407,-7.11877 c 9.5197,-2.24396 17.6809,-7.02193 25.593,-14.98348 12.0988,-12.17428 16.9239,-24.09592 16.7873,-41.47674 -0.098,-12.49913 -2.5858,-23.16448 -7.8134,-33.5 -3.8844,-7.67986 -15.8784,-23.22461 -20.0068,-25.92965 -2.5918,-1.69819 -2.6445,-1.6781 -7.4958,2.85972 -4.5121,4.22061 -5.2851,4.56993 -10.1127,4.56993 -3.2835,0 -6.8571,-0.78904 -9.6107,-2.12206 l -4.3836,-2.12207 -2.9321,2.80916 c -1.6127,1.54503 -2.9322,3.1702 -2.9322,3.61147 0,0.44128 2.25,3.28685 5,6.3235 3.0857,3.40735 5,6.44264 5,7.92798 0,2.80041 -6.9739,11.17834 -19.4136,23.32202 -10.143,9.90159 -12.2295,10.39633 -18.8587,4.47166 -7.6944,-6.87662 -7.4922,-6.79153 -10.1676,-4.27806 l -2.3814,2.23714 1.8887,4.15963 c 1.0831,2.38548 1.8981,6.4443 1.9107,9.51621 0.022,5.29518 -0.06,5.44057 -7.0833,12.68425 -3.9079,4.03022 -6.9454,7.76091 -6.75,8.29041 0.6335,1.71683 17.1901,16.25811 23.1776,20.35635 16.364,11.2006 34.1115,15.15559 50.5846,11.27263 z m -29.8425,-6.98889 c -4.0895,-1.42295 -11.0645,-4.9587 -15.5,-7.85722 -8.1813,-5.34641 -19.5645,-15.07133 -19.5645,-16.71445 0,-2.24856 4.2074,-0.46859 10.0861,4.26705 10.6256,8.55941 20.25,14.36655 28.0382,16.91747 6.1129,2.00219 9.3996,2.41582 19.1962,2.41582 11.1155,0 11.6224,0.0849 8.5,1.42435 -1.8689,0.8017 -7.692,1.5795 -13.3205,1.77926 -8.7344,0.30998 -10.941,0.0275 -17.4355,-2.23228 z m -52.2516,-30.6849 c 1.0737,-9.31065 -16.00108,-27.4696 -25.01494,-26.60336 -2.90338,0.27901 -3.33513,0.70191 -3.6089,3.53489 -0.97301,10.06885 14.96173,26.7984 24.81094,26.04852 2.983,-0.22712 3.5462,-0.66731 3.8129,-2.98005 z m -18.37229,-8.08269 c -5.06064,-5.06064 -6.13073,-10.03253 -2.41322,-11.21242 4.54428,-1.4423 13.38411,7.19403 12.76821,12.47426 -0.2269,1.94538 -0.9485,2.60929 -3.105,2.85658 -2.21472,0.25396 -3.74939,-0.61782 -7.24999,-4.11842 z m 24.23989,-0.28558 c -0.3197,-1.97 -1.5551,-5.59349 -2.7454,-8.05219 -1.1902,-2.4587 -1.8426,-4.78437 -1.4497,-5.16816 0.8786,-0.85824 7.5146,6.62039 7.5146,8.4688 0,0.73336 0.4138,1.33339 0.9194,1.33339 1.1757,0 -0.5338,-6.30235 -3.0517,-11.25 -2.5495,-5.00986 -1.0291,-4.73362 4.005,0.72766 4.5987,4.98901 5.1729,4.49214 1.9988,-1.72961 -4.3135,-8.45512 -17.4693,-18.75628 -23.9372,-18.74308 -2.43187,0.005 -2.43131,0.007 0.5657,2.55648 l 3,2.55151 -4.6613,-0.60446 c -5.31145,-0.68876 -6.95237,0.55751 -3.30454,2.50977 3.64814,1.95244 2.99754,2.8104 -1.50675,1.98674 -5.74667,-1.05086 -5.66504,-0.12709 0.24921,2.82011 7.11548,3.54578 16.78368,13.57963 19.80318,20.55204 1.3311,3.07379 2.5916,5.59639 2.8011,5.60577 0.2094,0.009 0.1192,-1.59476 -0.2004,-3.56477 z m 45.1248,-32.76461 c 6.1864,-6.2702 11.1947,-12.17921 11.1947,-13.20784 0,-1.02376 -1.6626,-3.56402 -3.6946,-5.64502 l -3.6946,-3.78364 -2.2001,2.06689 c -1.7535,1.64726 -2.0971,2.83542 -1.6924,5.85223 0.6499,4.84547 -2.0234,10.65313 -5.8035,12.60788 -1.5485,0.80077 -4.9753,1.47092 -7.6151,1.48922 -3.3022,0.0229 -5.5523,0.6599 -7.2119,2.04168 l -2.4123,2.0084 3.8652,3.95833 c 2.1259,2.17707 4.8113,3.95832 5.9676,3.95832 1.3552,0 6.0808,-4.03236 13.297,-11.34645 z m -15.7947,7.85918 c -1.6616,-2.00209 -0.5548,-4.51273 1.9894,-4.51273 1.1345,0 2.324,0.68073 2.6433,1.51273 0.5746,1.49745 -1.1866,4.48727 -2.6433,4.48727 -0.4153,0 -1.3105,-0.66927 -1.9894,-1.48727 z m 19.6907,-19.14483 c -0.3857,-0.38568 -0.7013,-1.78253 -0.7013,-3.10412 0,-1.91989 0.4523,-2.33865 2.25,-2.08333 1.6444,0.23353 2.25,0.98881 2.25,2.80585 0,2.41363 -2.3152,3.86514 -3.7987,2.3816 z m 11.417,-33.65567 c 1.4246,-2.56605 0.1416,-5.6089 -2.6616,-6.31245 -1.7574,-0.4411 -3.4316,0.19804 -6.1833,2.36066 -8.5714,6.73634 -13.7763,7.76767 -29.3286,5.81132 -5.2972,-0.66634 -7.1651,-0.50921 -9.733,0.81875 -4.5847,2.3708 -6.5197,6.69742 -5.8055,12.98066 2.0376,17.92481 2.0279,18.10455 -1.3056,24.25924 l -3.1179,5.75659 3.2277,3.33017 3.2277,3.33016 25.3438,-25.27366 c 13.9391,-13.90052 25.7905,-26.07817 26.3363,-27.06144 z m -45.717,26.39072 c -3.1027,-1.892 -6.4013,-8.16463 -6.4013,-12.17285 0,-5.16706 5.7268,-10.9301 10.8614,-10.9301 3.3885,0 12.9043,4.12172 15.2292,6.59639 2.2099,2.35237 2.2132,2.40362 0.407,6.40909 -1.0015,2.22077 -3.763,5.82803 -6.1369,8.01614 -4.9559,4.56821 -8.9135,5.15828 -13.9594,2.08133 z m 2.0987,-10.84317 c 0,-3.34301 0.3488,-3.85524 3.2748,-4.80917 3.6104,-1.17704 3.292,-2.45061 -0.6127,-2.45061 -4.9535,0 -8.2505,6.51158 -4.9621,9.8 1.8991,1.89912 2.3,1.45636 2.3,-2.54022 z m -14.9764,9.01414 c -0.3845,-2.04934 -1.821,-7.27786 -3.1924,-11.61892 -1.6477,-5.21602 -2.1571,-8.22907 -1.502,-8.88421 0.6552,-0.65514 1.517,-0.0213 2.5411,1.86893 0.8983,1.65799 1.5665,2.20035 1.5897,1.29028 0.054,-2.11687 6.6058,-9.65739 9.0709,-10.43979 1.7576,-0.55784 1.8096,-0.79258 0.4722,-2.13 -1.8876,-1.88758 -1.8909,-2.79347 -0.016,-4.34964 2.3049,-1.91294 4.8268,-0.43382 4.2656,2.50187 -0.4434,2.31949 -0.2014,2.48756 3.582,2.48756 h 4.0575 l -3.431,-3.53989 c -6.1786,-6.37462 -6.6967,-6.19019 -20.0623,7.14053 -6.5445,6.52745 -11.8991,12.53955 -11.8991,13.36021 0,1.25482 13.6756,16.03915 14.8363,16.03915 0.2125,0 0.072,-1.67674 -0.3127,-3.72608 z m -10.8223,-8.90602 c -1.1476,-1.14754 -0.7983,-4.04248 0.6308,-5.22851 2.1408,-1.7767 5.5157,1.17542 4.0607,3.55204 -1.1979,1.9569 -3.5652,2.80281 -4.6915,1.67647 z m 82.7169,-6.97489 c 2.2398,-0.85947 2.0272,-6.84155 -0.4229,-11.90285 -5.8008,-11.98274 -21.5495,-22.34694 -25.9324,-17.06596 -1.2906,1.55515 -0.4993,8.18807 1.0945,9.17304 0.5118,0.31633 2.02,-0.13864 3.3514,-1.01104 3.5242,-2.30913 6.9039,-1.95127 10.5505,1.11711 5.7215,4.81431 7.051,11.11925 3.2573,15.44741 -1.6098,1.83657 -1.0001,2.50857 3.5118,3.87076 1.4694,0.44364 2.7473,0.84529 2.8398,0.89257 0.092,0.0473 0.8801,-0.18719 1.75,-0.52104 z m 7.5923,-12.84617 c -0.5816,-2.5952 -1.956,-6.47992 -3.0543,-8.6327 -1.0982,-2.15277 -1.6219,-3.91414 -1.1636,-3.91414 1.2023,0 5.6902,4.99623 7.6351,8.5 l 1.6653,3 -0.63,-3.95349 c -0.3465,-2.17441 -1.5238,-5.70552 -2.6162,-7.8469 -1.0925,-2.14138 -1.7281,-4.15159 -1.4126,-4.46713 0.8244,-0.82439 5.4951,3.76615 7.2346,7.11045 2.3667,4.5501 2.7011,2.28171 0.4229,-2.86853 -4.202,-9.49939 -15.9979,-19.49843 -22.9426,-19.44779 l -3.6491,0.0266 2.75,1.70501 c 3.7778,2.3422 3.445,3.18789 -0.8713,2.2144 -1.9917,-0.4492 -4.2417,-0.57867 -5,-0.2877 -1.4794,0.56768 -1.9094,2.31507 -0.5698,2.31507 0.4449,0 1.6824,0.67883 2.75,1.50851 1.78,1.38328 1.4845,1.46386 -3.5589,0.97067 l -5.5,-0.53784 5.0662,2.39161 c 8.0446,3.79765 17.7152,13.5187 21.0394,21.14928 1.5431,3.54197 2.9534,6.29218 3.134,6.11156 0.1806,-0.18062 -0.1475,-2.45175 -0.7291,-5.04695 z M 460.52464,731.50839 c -19.4369,-1.23975 -45.43296,-3.80121 -62.70711,-9.87251 -15.48148,-5.44124 -48.79289,-25.10899 -48.79289,-27.49205 0,-0.35533 0.80696,-1.37634 1.79324,-2.26892 1.66959,-1.51095 2.2017,-1.37681 7.71626,1.94512 30.64181,18.4584 62.49392,28.55589 99.18859,31.44394 29.84154,2.34868 54.94558,-1.80332 83.11275,-12.96864 9.88264,-3.91741 23.65063,-5.76803 27.56013,-4.23172 1.4646,0.57552 0.1611,1.51462 -6,4.32284 -22.8771,10.42738 -48.16751,16.64521 -76.37097,18.77638 -13.12604,0.99186 -14.97453,1.01691 -25.5,0.34556 z m -14.5,-34.33623 c -26.02702,-4.15028 -44.57018,-13.18338 -66.67731,-25.54639 -5.72893,-3.2038 -6.18076,-3.69238 -5.06577,-5.47776 2.52358,-4.04084 4.9118,-3.11679 16.75183,4.84832 21.03175,14.14864 54.84903,19.71062 82.4012,18.73722 21.69971,-0.76664 31.00334,0.24788 49.82939,-4.85731 l 8.73934,-2.36992 1.5421,2.35354 c 1.46041,2.22886 1.40915,2.40408 -0.96764,3.30774 -3.88446,1.47687 -14.06988,4.91354 -22.91044,6.59826 -11.51472,2.19432 -51.70516,4.30986 -63.6427,2.4063 z m -112.83655,-13.1947 c -16.20827,-15.10611 -30.16345,-29.3873 -30.16345,-30.86809 0,-1.87216 12.75108,-15.81042 74.15877,-81.06325 24.65886,-26.20293 45.62336,-47.95961 46.58777,-48.34818 0.9644,-0.38858 4.50173,-1.06073 7.86073,-1.49368 3.359,-0.43294 7.80953,-1.59494 9.89007,-2.58222 5.07495,-2.40822 12.81723,-10.13205 20.35062,-20.30212 5.38129,-7.26473 6.12026,-8.78463 5.6054,-11.52906 -0.5079,-2.70733 0.18887,-4.23377 4.85319,-10.63212 3.60283,-4.94222 5.68538,-8.89949 6.15277,-11.6915 0.96047,-5.73753 3.29463,-8.38628 13.40168,-15.20793 14.65092,-9.88849 23.15106,-19.80842 43.33344,-50.57151 14.1963,-21.63878 21.18285,-30.72029 32.41553,-42.13548 22.4288,-22.79331 36.1455,-28.98832 49.6701,-22.43293 6.9583,3.37274 14.2218,10.35087 17.2796,16.60088 2.3065,4.71439 2.6111,6.41376 2.2899,12.7755 -0.4653,9.21392 -3.8356,16.22308 -14.8315,30.84468 -10.2649,13.64955 -23.818,26.58982 -44.1732,42.17588 -30.9701,23.71385 -41.27004,34.08969 -50.79715,51.17147 -4.6702,8.37351 -7.75098,11.42891 -12.24906,12.14819 -2.75543,0.44061 -5.53115,2.20437 -10.19575,6.47862 -4.99638,4.57828 -7.10769,5.87319 -9.57605,5.87319 -4.11675,0 -10.55133,4.45179 -19.83804,13.72502 -8.57257,8.56013 -11.67877,14.65207 -12.63243,24.77498 -0.3627,3.85 -1.26303,7.9 -2.00074,9 -0.73771,1.1 -22.3835,24.95 -48.10176,53 -25.71827,28.05 -51.93048,56.7375 -58.24937,63.75 -6.31889,7.0125 -12.13886,12.75 -12.93326,12.75 -0.7944,0 -4.44292,-2.79465 -8.10781,-6.21034 z m 9.74978,-11.85307 2.41322,-8.0534 -6.41322,-6.51698 c -3.52728,-3.58435 -7.61532,-7.38849 -9.08453,-8.45365 -2.65934,-1.928 -2.70128,-1.92579 -9.36912,0.49451 -3.68381,1.33715 -7.11493,2.84828 -7.62471,3.35806 -0.56918,0.56918 4.32979,6.00332 12.69414,14.08088 7.49157,7.23469 13.92477,13.15174 14.29601,13.14899 0.37124,-0.003 1.76093,-3.62903 3.08821,-8.05841 z m 18.65987,-13.43659 c 6.06252,-6.6 18.2012,-19.89398 26.97483,-29.54217 8.77364,-9.64819 25.85207,-28.28715 37.95207,-41.41991 30.01656,-32.57854 28.68582,-30.95382 28.31453,-34.56958 -0.29767,-2.89874 -1.57447,-1.68384 -23.81453,22.65992 -76.35628,83.57887 -79.77741,87.45322 -80.80796,91.51329 -0.55327,2.1797 -0.69899,3.82704 -0.32382,3.66077 0.37516,-0.16628 5.64236,-5.70232 11.70488,-12.30232 z m -0.92378,-13.26406 c 6.51787,-7.02024 30.07568,-32.68066 52.35068,-57.02316 l 40.5,-44.2591 1.23906,-6.0714 c 1.67043,-8.18515 5.12597,-14.19703 14.70179,-25.57782 11.70667,-13.91329 11.00773,-12.50051 7.7354,-15.63561 l -2.82101,-2.70269 -6.56999,8.76692 c -3.61349,4.82181 -9.20592,11.41745 -12.42762,14.65698 -3.2217,3.23953 -5.18263,5.66378 -4.35763,5.38722 11.09895,-5.33875 -0.29672,2.97718 -6,4.57742 -4.99482,1.48356 -6.51035,2.71754 -16.5,13.43466 -17.15517,18.40446 -90.50653,97.37786 -93.40463,100.56365 l -2.59537,2.85302 7.5,6.89564 c 4.125,3.79261 7.79219,6.89626 8.14932,6.89699 0.35713,7.4e-4 5.98213,-5.74249 12.5,-12.76272 z m -34.01835,-3.61058 c 1.17204,-0.61895 20.02764,-20.25036 41.90133,-43.62536 21.8737,-23.375 45.15339,-48.2375 51.73265,-55.25 11.21263,-11.95096 11.78166,-12.75 9.07991,-12.75 -3.20296,0 -9.73909,6.28302 -36.43011,35.01934 -7.92811,8.53564 -27.00397,28.94323 -42.39078,45.3502 -15.38682,16.40698 -28.60945,30.73518 -29.38361,31.84046 -1.31438,1.87654 -1.24976,1.96096 0.97603,1.27516 1.31099,-0.40394 3.34255,-1.24085 4.51458,-1.8598 z M 483.30906,510.1878 c 3.82688,-2.58439 4.6783,-4 2.40581,-4 -2.63581,0 -18.6325,14.87399 -18.67535,17.36466 -0.008,0.47556 2.81618,-1.77444 6.27637,-5 3.46019,-3.22556 7.95712,-6.98966 9.99317,-8.36466 z m 18.55816,-10.3396 4.25899,-4.3396 -4.30078,-5.07182 C 498.0201,485.94924 484.9139,474.1878 483.7186,474.1878 c -0.24952,0 -2.36436,2.53069 -4.69965,5.62376 l -4.24598,5.62376 4.87583,4.06225 c 2.68171,2.23424 7.12584,6.41194 9.87584,9.28379 2.75,2.87185 5.69381,5.26314 6.54179,5.31399 0.84799,0.0508 3.45834,-1.86037 5.80079,-4.24715 z m -9.14433,-0.45347 -2.69066,-2.80845 3.80585,-3.71631 3.80585,-3.71632 2.19036,2.33153 c 2.88536,3.07132 2.78736,3.73164 -1.11519,7.51414 l -3.30554,3.20386 z m 8.38674,-27.84772 c -5.42321,-6.16109 -5.29528,-8.30044 0.76229,-12.74711 6.0086,-4.41071 18.00214,-17.05745 20.5538,-21.6732 1.46177,-2.64424 -0.15579,-1.45937 -7,5.12749 -4.8956,4.71151 -12.38858,10.95521 -16.65108,13.87489 -4.2625,2.91969 -7.75,5.88745 -7.75,6.59503 0,1.12758 12.57976,13.46369 13.72961,13.46369 0.2422,0 -1.39788,-2.08836 -3.64462,-4.64079 z m 36.97275,-54.09079 c 28.43303,-37.13286 38.95863,-49.21548 51.80383,-59.46665 9.3732,-7.48035 14.2707,-9.96075 21.1384,-10.70584 l 5.5,-0.59669 -3.8907,-1.86333 c -9.5031,-4.55114 -19.2099,0.0589 -36.5708,17.36854 -13.401,13.36147 -22.71237,25.41446 -35.8694,46.43068 -5.18718,8.28568 -10.72225,16.94595 -12.30016,19.24505 -2.91217,4.2432 -3.57679,5.87535 -1.99421,4.89726 0.48109,-0.29733 5.96345,-7.18639 12.18304,-15.30902 z M 450.52464,661.7974 c -11.61683,-1.91728 -22.75042,-4.99744 -33,-9.12961 -9.27545,-3.73945 -21.39775,-9.93642 -20.8125,-10.84781 0.17179,-0.26752 0.92175,-1.08312 1.66639,-2.10148 1.28924,-1.76314 1.80816,-1.6291 10.86725,2.80706 12.07242,5.91177 27.22467,8.70679 40.02886,10.94338 12.89801,2.25299 34.96258,4.50372 47.25,2.252 16.00449,-2.93344 16.80065,-2.96298 18.84913,-0.69943 1.82081,2.01198 1.79063,2.05199 -2.3985,3.18 -16.48833,4.43985 -46.77279,6.18382 -62.45063,3.59631 z m 65.85184,-32.8596 c -36.14735,-33.40207 -57.45187,-53.94991 -57.08324,-55.05581 1.10091,-3.30271 3.345,-1.41213 43.7314,36.8424 28.00891,26.5304 35,33.70197 35,35.90355 0,0.85792 -0.1836,1.55986 -0.40801,1.55986 -0.2244,0 -9.78247,-8.6625 -21.24015,-19.25 z m -221.85184,14.47809 c -13.814,-18.71144 -25.72064,-36.24482 -32.84113,-57.68527 -13.33811,-40.16226 -17.0515,-32.74256 -4.76648,-126.54282 1.65805,-12.65977 10.00852,-32 11.28146,-32 0.42903,0 1.47622,1.0625 2.3271,2.3611 1.42025,2.16758 1.37447,2.76182 -0.55847,7.25 -3.37273,7.83128 -6.15687,28.78793 -8.61065,42.54817 -3.17913,17.82785 -5.70533,52.83448 -2.73348,72.02791 5.05629,32.65553 18.70806,54.37494 36.81029,79.60568 4.64192,6.46987 5.41787,11.66272 4.55766,13.27003 -1.41357,2.64128 -3.08897,2.38542 -5.46634,-0.8348 z M 465.18672,626.6559 c -13.99151,-1.58032 -25.03645,-4.24148 -35.70759,-9.9196 l -6.81903,-3.62841 2.09126,-2.09125 2.09125,-2.09125 7.51319,3.12775 c 10.33435,4.3022 22.34303,7.49202 33.93663,8.82822 8.14147,0.93833 10.47393,-0.0221 12.43868,1.64751 1.86292,1.58304 1.08879,1.22628 2.18801,2.77488 2.47123,3.48151 -12.14255,1.98351 -17.7324,1.35215 z m 230.40889,-4.00006 c -1.6306,-2.48867 -1.652,-3.01409 -0.2588,-6.34078 0.8355,-1.99499 3.6082,-8.57726 6.1615,-14.62726 7.1651,-16.97759 8.9988,-32.56583 12.7166,-55.75 1.9845,-12.37519 4.6534,-51.53832 2.426,-66.25 -7.7078,-50.90773 -24.7688,-88.31247 -60.2529,-129.23903 -10.5544,-12.17325 -29.7378,-34.13208 -39.3871,-41.36486 -28.5682,-21.41357 -85.00444,-42.97351 -126.07557,-45.56443 -22.7976,-1.43816 -43.82204,-2.54573 -59.4007,-0.078 -14.30624,2.26615 -36.12113,7.8365 -48.31941,12.33819 -13.54049,4.99702 -31.84955,14.14723 -43.89269,21.93598 -8.21522,5.31309 -10.85502,6.54272 -13.5,6.28837 -1.80834,-0.17391 -3.27004,-0.76619 -3.24822,-1.31619 0.0623,-1.57032 18.19133,-13.41818 30.12951,-19.69055 42.04918,-22.09278 87.31384,-32.60896 137.68221,-28.00994 24.12536,2.20284 59.64257,12.14971 85.86357,23.67465 12.9939,5.71121 32.5045,16.97294 43.3169,25.00296 9.7643,7.25168 36.9049,29.46179 46.0804,41.02288 8.5332,10.75186 21.8366,35.48406 27.8105,46.38822 14.2945,26.09187 24.7341,47.63161 29.3154,79.48678 2.3773,16.53019 1.4133,55.87108 -2.041,81.68338 -3.72002,27.79795 -11.6449,50.94356 -21.8491,70.2824 l -1.4989,2.84078 z M 317.19999,611.08067 c -11.8996,-17.9446 -24.47139,-40.18366 -28.76536,-60.90545 -4.61298,-22.26124 -3.4772,-48.93858 0.0936,-69.98742 2.21282,-13.04395 2.11278,-12.84441 4.9818,-9.93693 2.37948,2.41138 2.38945,2.50507 0.95103,8.93693 -2.1346,9.54485 -1.81304,37.27819 -1.4917,50 0.61001,24.14991 12.06109,50.18862 25.20131,72.2451 4.31969,7.25081 7.85398,13.46715 7.85398,13.8141 0,0.34695 -0.79356,1.34898 -1.76346,2.22674 -1.64963,1.49289 -2.10544,1.0802 -7.06119,-6.39307 z m 27.07339,-22.03968 c -1.15366,-2.00373 -16.18138,-28.98312 -19.75493,-39.71467 -6.04504,-18.15355 -5.36043,-33.77207 -3.53344,-52.26923 0.63183,-6.39688 2.06768,-14.75816 2.46156,-16.23094 l 2.40305,1.67535 c 2.67119,1.86229 2.25542,2.64044 1.09417,11.3085 -1.65583,12.35975 -0.58069,32.17433 2.46221,45.3778 3.44849,14.96336 16.20947,38.14753 18.40977,42.25936 l 3.88459,7.25937 -2.40633,2.66257 -2.40632,2.21257 z m 333.33943,-10.68267 c -1.4921,-2.88551 -1.415,-3.7069 1.3578,-14.46107 4.8574,-18.83887 5.64886,-31.94344 5.60126,-52.62106 -0.064,-27.95625 0.0898,-66.33845 -33.57118,-111.06111 -5.8502,-7.77266 -11.74058,-17.59952 -9.63978,-20.47252 1.2201,-1.66855 1.9907,-0.92416 8.8601,8.55887 34.1435,47.13412 47.9272,104.27686 38.3506,158.98891 -1.8781,10.72955 -7.3433,32.09378 -8.5079,33.25837 -0.4918,0.49186 -1.5554,-0.4586 -2.4509,-2.19039 z M 362.3641,547.45336 c -3.57972,-7.57272 -4.43721,-26.7532 -2.55419,-37.71862 l 1.71268,1.56685 c 4.51711,4.13246 2.59438,3.45213 2.70604,10.19395 0.18932,11.43161 2.9349,25.27501 8.0392,33.26984 3.92412,6.14633 5.78613,6.81062 4.06814,8.26944 -1.00223,0.85103 -2.84001,3.2153 -3.8446,2.12815 -0.18959,-0.20517 -2.81816,-2.24756 -5.04079,-6.94943 z m 287.83971,6.88037 c -1.0889,-0.70201 -1.0543,-2.15056 0.1971,-8.24874 2.452,-11.9484 4.83969,-22.68082 3.71469,-35.39719 -2.95154,-33.36257 0.0659,-55.76973 -18.64201,-85.48897 l -14.68758,-16.21688 2.0452,-2.04519 2.0452,-2.04518 4.40384,4.15547 c 24.948,23.54097 28.91644,61.50348 30.64854,95.05496 0.6792,13.15539 -0.99998,29.87504 -3.70388,42.57214 -1.7016,7.99054 -2.9818,9.61905 -6.0211,7.65958 z m -33.4767,-5.92217 c -1.4807,-1.63618 -1.413,-2.72042 0.8579,-13.75 2.7813,-13.50833 3.4261,-33.65292 1.4716,-45.97376 -2.6089,-16.44632 -9.3956,-35.76275 -17.1524,-48.81932 -3.066,-5.16093 -3.9093,-7.41002 -3.1999,-8.53463 2.5499,-4.04238 6.04122,-2.0326 13.83942,13.4899 9.857,19.62063 12.38308,36.02702 13.16508,58.36405 0.4531,12.94202 0.1983,17.48038 -1.5438,27.5 -2.3775,13.67364 -3.8811,19.5 -5.0324,19.5 -0.4389,0 -1.5214,-0.79931 -2.4055,-1.77624 z M 361.19014,505.12314 c -35.58578,-33.39418 -36.3629,-34.04894 -39.48288,-33.26654 -8.86441,2.22294 -17.07261,-0.93893 -26.24255,-10.10887 -7.45829,-7.45829 -10.73359,-13.94243 -11.27167,-22.31466 -0.37811,-5.8831 -0.707,-6.59703 -5.5352,-12.01549 -11.22338,-12.59549 -17.95102,-24.28686 -21.83108,-37.93829 -1.71506,-6.03418 -2.20984,-10.38523 -2.19373,-19.29149 0.0189,-10.427 0.31324,-12.27456 3.15511,-19.80141 7.39296,-19.58065 22.63839,-33.02717 42.83695,-37.78229 10.33449,-2.43294 27.37499,-1.52952 37.89955,2.00929 11.73489,3.94577 23.00126,10.81922 34.79253,21.22643 l 4.79253,4.22998 3.59702,-2.441 c 5.10957,-3.46745 12.21555,-3.34618 18.58559,0.31716 14.89254,8.56455 25.09192,26.80101 20.32909,36.34834 -1.53996,3.08692 -1.53183,3.39596 0.13041,4.95427 0.97506,0.91408 11.4245,10.61185 23.22099,21.5506 11.79649,10.93875 26.75899,24.82155 33.25,30.85068 6.49101,6.02913 11.80184,11.30507 11.80184,11.72432 0,0.41925 -1.27967,1.42401 -2.8437,2.2328 l -2.8437,1.47054 -34.80407,-32.50351 -34.80407,-32.50351 -3.60223,3.40935 c -1.98123,1.87515 -4.71486,4.15154 -6.07474,5.05866 -3.08254,2.05623 -9.95065,2.12607 -14.68173,0.1493 -1.97451,-0.825 -3.7389,-1.5 -3.92088,-1.5 -0.88953,0 -2.21796,7.3796 -1.61495,8.97127 0.37954,1.00182 4.85524,5.73792 9.946,10.52466 9.74256,9.16073 11.21243,11.75202 9.29373,16.38418 -1.8149,4.38154 -27.25703,29.11989 -29.94832,29.11989 -3.69704,0 -6.12867,-1.78445 -17.2019,-12.62356 -5.8303,-5.70704 -11.16084,-10.37644 -11.84563,-10.37644 -0.68479,0 -2.54542,0.92593 -4.13474,2.05762 -2.65258,1.88881 -2.77489,2.2375 -1.49075,4.25 2.22645,3.4893 3.89057,10.28567 3.19605,13.05286 -0.35085,1.39792 -3.15954,5.51402 -6.24152,9.14689 -3.08198,3.63286 -5.44143,6.74727 -5.24323,6.9209 5.4098,4.73897 70.65129,66.0804 71.31834,67.05501 0.66881,0.97717 0.39564,2.02101 -0.90499,3.45818 -1.02462,1.1322 -2.13841,2.05854 -2.47508,2.05854 -0.33668,0 -16.94725,-15.3291 -36.91239,-34.06466 z m -42.66205,-40.3142 c 1.69727,-1.24108 1.76255,-1.78994 0.65324,-5.49249 -3.03672,-10.13568 -16.96584,-23.12865 -24.79507,-23.12865 -3.82524,0 -4.80368,1.97183 -3.40258,6.85719 2.41322,8.41438 10.34628,17.56145 18.40395,21.22033 4.9737,2.25849 6.65823,2.35867 9.14046,0.54362 z m -15.1838,-8.50454 c -6.51366,-4.71848 -8.30129,-12.1166 -2.92776,-12.1166 4.89689,0 12.42363,8.85517 11.09225,13.04998 -0.86745,2.73309 -3.522,2.42961 -8.16449,-0.93338 z m 22.1586,-1.3666 c -0.37437,-1.7875 -1.94184,-5.6125 -3.48327,-8.5 -1.54144,-2.8875 -2.48722,-5.25 -2.10175,-5.25 0.96313,0 7.59558,7.04284 8.94643,9.5 2.45257,4.46115 1.0315,-1.26901 -1.79799,-7.25 -1.62621,-3.4375 -2.73502,-6.25 -2.46402,-6.25 1.48858,0 5.89168,3.79679 7.99824,6.89687 2.98848,4.39795 3.09728,3.51345 0.29986,-2.43781 -4.76696,-10.14129 -16.96243,-20.45906 -24.18231,-20.45906 h -3.91501 l 2.36079,2.04802 2.36078,2.04803 -3,-0.54625 c -1.65,-0.30044 -3.65097,-0.12832 -4.44659,0.38249 -1.19525,0.76737 -1.02149,1.27585 1,2.92643 l 2.44659,1.99768 -4.25,-0.55987 c -2.3375,-0.30793 -4.25,-0.30861 -4.25,-0.002 0,0.3071 2.52736,1.71543 5.61636,3.12962 7.03592,3.22115 16.99187,13.19925 20.30458,20.34975 2.78774,6.01736 3.5227,6.58514 2.55731,1.97561 z m 59.75673,-19.48437 c 6.47076,-6.4539 11.76502,-12.43177 11.76502,-13.28416 0,-0.85238 -2.53062,-4.00942 -5.6236,-7.01563 l -5.62361,-5.46584 0.61085,7.75 c 0.42579,5.40211 0.27274,7.75 -0.50519,7.75 -0.61383,0 -2.85939,1.575 -4.99013,3.5 -2.13074,1.925 -4.54779,3.5 -5.3712,3.5 -2.14289,0 -1.86904,0.76858 1.25288,3.51636 3.79271,3.33818 2.14583,3.10322 -10.83044,-1.54518 -6.18567,-2.21584 -11.6621,-3.89033 -12.16985,-3.72108 -1.4498,0.48326 15.99378,16.7499 17.96181,16.7499 0.96714,0 7.0527,-5.28047 13.52346,-11.73437 z m -15.8762,7.22697 c -0.34775,-0.90623 0.04,-2.31993 0.86162,-3.14157 1.32518,-1.32518 1.68445,-1.30332 3.18139,0.19361 0.92812,0.92813 1.51966,2.19777 1.31452,2.82143 -0.61191,1.86037 -4.65554,1.95587 -5.35753,0.12653 z m 20.79283,-18.37774 c -2.02414,-1.28275 -0.94985,-4.5694 1.61308,-4.935 2.68733,-0.38334 4.00654,2.18594 2.22474,4.33287 -1.41425,1.70408 -1.96311,1.79019 -3.83782,0.60213 z m -53.30598,3.03809 c 6.19576,-4.31133 12.95868,-5.12118 22.15437,-2.65295 7.43039,1.9944 11.92731,1.86434 15.43257,-0.44634 5.77742,-3.8085 6.93196,-9.99909 3.98547,-21.36995 -2.13313,-8.23201 -1.23749,-13.22867 3.69528,-20.61555 4.31897,-6.46771 4.25619,-9.18133 -0.24546,-10.6101 -1.80491,-0.57286 -6.12583,3.31198 -28.00106,25.17506 -14.22674,14.21885 -25.8668,26.2767 -25.8668,26.79522 0,1.24465 4.0927,5.57166 5.26994,5.57166 0.50673,0 2.11579,-0.83117 3.57569,-1.84705 z m 21.63956,-6.22598 c -5.0022,-2.60205 -7.48519,-5.45068 -7.48519,-8.58741 0,-7.89414 12.46932,-18.46632 19.06725,-16.16627 2.19356,0.76468 3.22361,2.35872 5.42574,8.39658 3.11002,8.52715 2.85451,11.23647 -1.46728,15.55826 -3.57884,3.57884 -9.60113,3.88841 -15.54052,0.79884 z m 12.95811,-5.14948 c 2.47682,-3.53615 1.80419,-4.93407 -1.01677,-2.11311 -2.0892,2.0892 -3.21824,2.46883 -6,2.01741 -3.28406,-0.53293 -4.78018,0.60533 -2.17653,1.65593 3.29981,1.3315 7.68968,0.58648 9.1933,-1.56023 z m -2.64043,-7.40021 c 0.32775,-2.29705 -1.84697,-3.68132 -4.30287,-2.73891 -1.55201,0.59557 -2.03583,3.49247 -0.79115,4.73715 1.42568,1.42568 4.79402,0.10437 5.09402,-1.99824 z m -65.52682,7.37427 c 4.35401,-2.36131 7.23306,-2.19326 13.65725,0.79714 5.39352,2.51063 5.44763,2.51482 7.39032,0.57214 1.94269,-1.94269 1.93402,-1.98491 -1.1833,-5.76677 -2.19002,-2.65687 -3.14032,-4.86365 -3.14032,-7.29243 0,-3.14187 1.34943,-4.83211 13.78947,-17.27216 15.55217,-15.55216 16.95779,-16.20696 23.2483,-10.83011 1.90423,1.62765 3.89081,2.97765 4.41462,3 0.52382,0.0224 2.4123,-1.37436 4.19664,-3.1038 l 3.24424,-3.14445 -1.80228,-3.60555 c -4.21931,-8.44095 -3.64457,-13.84602 2.13823,-20.10875 l 4.05742,-4.39415 -3.39332,-2.90194 c -20.00254,-17.10603 -35.15004,-23.71386 -54.30328,-23.68885 -15.88759,0.0207 -28.58767,5.02346 -38.98216,15.35557 -22.78072,22.64398 -20.31232,58.56087 6.03775,87.85314 l 5.85437,6.50806 5.77605,-5.11432 c 3.17683,-2.81288 7.22683,-5.90112 9,-6.86277 z m -19.50164,-1.65756 c -7.20325,-8.01175 -14.37319,-23.24702 -16.28044,-34.59399 -0.91471,-5.44196 -0.24105,-4.42517 3.48035,5.25304 1.74537,4.53917 5.95266,12.36969 9.34954,17.40115 9.90106,14.66547 10.02872,14.89323 8.95147,15.97048 -0.65115,0.65115 -2.52795,-0.72403 -5.50092,-4.03068 z m 50.46718,-6.84399 c 1.43867,-1.5125 2.92164,-3.9875 3.29549,-5.5 0.37386,-1.5125 1.14875,-2.75 1.72198,-2.75 0.57323,0 3.11195,-1.8149 5.64159,-4.03311 2.52964,-2.21822 6.32667,-5.49203 8.43784,-7.27515 l 3.83849,-3.24203 -2.72485,-2.72486 c -1.49867,-1.49867 -3.18429,-2.72485 -3.74582,-2.72485 -1.63208,0 -24.70631,23.23865 -24.70631,24.88235 0,1.48535 3.77634,6.11765 4.98722,6.11765 0.35123,0 1.81569,-1.2375 3.25437,-2.75 z m -4.57492,-0.91667 c -1.26679,-1.26679 -0.66092,-4.12156 1.01087,-4.76309 2.12423,-0.81514 4.79302,1.76112 3.99059,3.85222 -0.60779,1.58387 -3.75524,2.15709 -5.00146,0.91087 z m 19.3439,-19.8206 c -1.63038,-1.96448 -0.57177,-4.51273 1.87471,-4.51273 2.33535,0 3.18034,1.84695 1.94441,4.25 -1.10114,2.14098 -2.19771,2.21641 -3.81912,0.26273 z m 50.35852,-5.11063 c -0.21291,-5.03873 -3.3871,-10.5126 -9.82311,-16.93991 -9.8169,-9.80363 -18.19336,-11.209 -17.92568,-3.0075 0.16101,4.93341 1.56677,6.22812 4.51794,4.16104 3.83549,-2.68648 6.75289,-1.98776 11.49334,2.75269 4.66564,4.66564 5.63661,8.61242 3.11842,12.67566 -1.64188,2.64926 0.37917,4.08013 5.25,3.71691 3.22335,-0.24036 3.48965,-0.50585 3.36909,-3.35889 z m 6.15522,-7.1521 c -0.38406,-2.0625 -1.71846,-5.8875 -2.96534,-8.5 -1.24688,-2.6125 -1.9441,-4.75 -1.54938,-4.75 1.20031,0 6.08576,5.28371 7.60894,8.22922 0.78806,1.52393 1.61,2.77078 1.82654,2.77078 0.73275,0 -1.65681,-7.47603 -3.6268,-11.34691 -3.48512,-6.84798 -0.0899,-5.73902 5.34845,1.74695 3.33846,4.59542 3.7121,3.24292 0.72285,-2.6165 -4.80251,-9.4137 -16.26399,-18.70667 -23.13957,-18.76158 -3.3192,-0.0265 -3.44154,0.59748 -0.57262,2.92059 2.1768,1.76267 2.17654,1.76301 -0.98773,1.29859 -1.74081,-0.25549 -3.95519,-0.16135 -4.92085,0.20921 -1.57097,0.60283 -1.49333,0.88164 0.73773,2.64913 l 2.49347,1.9754 -3.69636,-0.25774 c -4.53364,-0.31613 -5.88536,0.69455 -2.17456,1.6259 7.82634,1.96429 19.27038,12.93071 23.02722,22.06616 1.01403,2.46582 2.00628,4.48499 2.20499,4.48705 0.19871,0.002 0.0471,-1.68375 -0.33698,-3.74625 z m -9.52431,145.97889 c -22.11583,-20.18233 -57,-53.41504 -57,-54.30154 0,-3.82768 7.39111,2.26067 41,33.77326 29.03893,27.22769 29.46411,27.67217 27.78887,29.05014 -0.97528,0.80222 -3.84358,-1.2712 -11.78887,-8.52186 z m 189.18437,-1.53264 c -1.9319,-2.05636 -2.8094,-5.18206 -2.8094,-13.65023 0,-15.40736 -3.6413,-31.5873 -10.8084,-44.62636 -3.4677,-6.3086 -3.4616,-6.74452 0.1225,-8.78534 1.6308,-0.92855 7.3577,9.64034 11.2407,20.7445 4.0745,11.65146 6.0738,23.53912 6.0549,36.00217 -0.018,11.88862 -0.6671,13.65044 -3.8003,10.31526 z M 513.02464,402.64417 c -3.575,-1.24202 -9.66234,-2.52025 -13.5,-3.29813 -11.11085,-2.25214 -26.18883,-1.79725 -34.9606,0.36221 -11.13532,1.70991 -9.113,1.84767 -12.11127,-1.09133 l -2.52676,-2.47682 7.9319,-2.26877 c 21.85731,-6.25187 46.79597,-0.98216 56.34,3.51001 9.10483,4.28545 11.05079,3.5193 9.80426,5.84847 -1.27514,2.38263 -2.64399,2.3096 -10.97753,-0.58562 z m 25,-27.89844 c -1.375,-0.74649 -7.17001,-2.98226 -12.87781,-4.96839 -27.13555,-9.44229 -46.16547,-14.82426 -85.39919,-2.12612 -4.76879,1.54344 -9.22631,2.53658 -9.80453,2.53658 -0.57822,0 -0.90892,-1.22067 -0.73489,-2.71261 0.28141,-2.41246 1.09891,-2.95704 7.38821,-4.92166 13.09072,-4.08921 23.58118,-7.31629 39.20562,-7.87444 22.12417,-0.79033 39.06328,4.35033 58.66673,12.57152 9.68886,4.06327 10.28992,4.50475 8.98442,6.5992 -1.44843,2.32376 -2.48378,2.49463 -5.42856,0.89592 z m 14.57203,-32.18749 c -26.70704,-13.03762 -47.71512,-19.55456 -78.09201,-17.35675 -14.55837,1.05332 -32.70975,4.97906 -48.17814,9.58272 l -12.19812,3.63037 -2.5619,-2.01519 -2.5619,-2.01519 8.26002,-2.97194 c 46.94147,-16.88945 82.23337,-15.55008 119.94225,-2.20129 9.3578,3.31262 25.66764,11.99627 29.65194,14.60498 2.2311,1.46081 2.2574,1.61316 0.595,3.45007 -0.9565,1.05698 -2.0069,1.88467 -2.3342,1.83931 -0.3272,-0.0454 -7.03204,-3.86659 -12.52294,-6.54709 z m 150.28694,-29.38246 c -7.8974,-9.35661 -14.4709,-17.56911 -14.6077,-18.25 -0.1368,-0.68089 0.088,-1.71211 0.5,-2.29161 0.8121,-1.14275 58.9463,-51.59184 63.5625,-55.15977 1.5477,-1.19617 3.4275,-1.93938 4.1774,-1.6516 1.5108,0.57975 28.2463,31.51725 29.0528,33.61905 0.5273,1.37417 -3.15,5.288 -7.6385,8.12963 l -2.5945,1.64259 -8.1058,-9.34947 c -11.6245,-13.40793 -9.9233,-12.90279 -18.5971,-5.52217 -4.1015,3.48996 -7.4912,6.72055 -7.5327,7.17911 -0.041,0.45855 2.6246,4.09787 5.9246,8.08737 3.3,3.9895 6,7.94162 6,8.78249 0,1.93193 -8.7663,8.8475 -10.3329,8.1515 -0.6419,-0.28515 -4.0177,-3.84318 -7.5018,-7.90674 l -6.3347,-7.38829 -9.4153,8.11639 c -5.1784,4.46402 -9.4153,8.29037 -9.4153,8.50301 0,0.21264 3.8683,4.98425 8.5961,10.60357 4.7278,5.61933 8.9997,10.96899 9.493,11.88814 0.6984,1.30127 -0.1287,2.57399 -3.7369,5.75 -2.5486,2.24335 -5.1964,4.07882 -5.884,4.07882 -0.6876,0 -7.7118,-7.65541 -15.6092,-17.01202 z m -116.359,10.38903 c -25.11814,-17.30434 -45.10437,-22.40244 -72.57319,-27.38955 -42.3148,-7.68249 -76.62729,-7.26539 -135.36037,20.027 -9.27897,4.3118 -10.75433,4.85704 -13.01097,3.82884 -1.40549,-0.64038 -2.555,-1.4296 -2.55445,-1.75382 0.002,-1.18078 24.53662,-11.49736 35.74901,-15.86994 98.78023,-38.52208 170.16359,1.56629 193.15987,17.88414 6.2341,4.42362 7.1069,5.37679 5.5,6.00685 -3.534,1.38572 -5.85297,0.75029 -10.9099,-2.73352 z M 215.44164,308.3641 c -27.81049,-17.63248 -57.96251,-37.4013 -59.88601,-39.26356 -1.95185,-1.8897 -1.92164,-1.95429 3.46584,-7.40953 2.98917,-3.02676 6.1702,-5.50321 7.06897,-5.50321 0.89877,0 3.38914,1.26627 5.53416,2.81393 4.72408,3.40849 35.33113,24.44863 37.30455,25.64419 1.80781,1.09523 2.51155,2.20871 -14.66638,-23.20556 l -14.3615,-21.24744 4.29289,-5.09111 c 2.36109,-2.80012 5.02264,-5.48167 5.91456,-5.95901 1.2214,-0.65367 7.08794,2.83794 23.76879,14.14661 12.18092,8.25797 22.14713,14.75987 22.14713,14.44867 0,-0.3112 -6.75,-10.21905 -15,-22.01744 -8.25,-11.79839 -15,-21.72183 -15,-22.05209 0,-1.17239 10.30976,-11.48075 11.48231,-11.48075 1.34319,0 50.51769,73.28031 50.51769,75.28196 0,0.7075 -2.46559,3.72132 -5.47909,6.69739 l -5.47908,5.41102 -3.27092,-1.68063 c -1.799,-0.92435 -11.82091,-7.5232 -22.27091,-14.66411 -10.45,-7.14091 -19.30689,-12.99745 -19.68197,-13.01455 -0.37509,-0.0171 6.03741,9.85465 14.25,21.9372 8.21258,12.08256 14.93197,22.4595 14.93197,23.05987 0,1.20198 -9.87585,11.97185 -10.97806,11.97185 -0.37837,0 -6.9506,-3.97066 -14.60494,-8.8237 z m 456.08297,-28.73743 c -3.3,-2.4953 -6.1612,-4.99839 -6.3582,-5.56243 -0.197,-0.56405 2.4462,-9.11419 5.8737,-19.00033 6.0001,-17.30642 6.1622,-18.02936 4.3582,-19.44234 -4.8974,-3.83592 -4.5129,-4.10126 -15.2233,10.50591 -5.5844,7.61613 -10.7845,14.0897 -11.5559,14.38571 -2.1529,0.82613 -13.8443,-8.26221 -13.301,-10.33958 0.4147,-1.58582 46.5992,-63.80065 50.9966,-68.69714 2.4142,-2.6883 2.743,-2.54339 14.6449,6.45583 16.9685,12.83007 21.0022,18.20458 21.0431,28.03762 0.026,6.30993 -1.7255,10.84689 -6.7456,17.47101 -4.605,6.07648 -10.6818,9.77327 -17.4405,10.60982 l -5.1468,0.63705 -6.1198,19.4954 c -4.0082,12.76846 -6.6211,19.57907 -7.5726,19.73788 -0.799,0.13337 -4.1528,-1.79912 -7.4528,-4.29441 z m 27.6677,-55.09953 c 1.507,-1.44381 3.4358,-4.09133 4.2862,-5.88336 2.6538,-5.5925 2.0335,-7.83241 -3.562,-12.86331 -2.8095,-2.52597 -5.397,-4.56086 -5.75,-4.52197 -1.0656,0.11736 -13.6419,17.60105 -13.6419,18.96504 0,0.69685 2.2389,2.80986 4.9752,4.69558 5.7865,3.98766 9.2239,3.88926 13.6925,-0.39198 z m -412.70638,26.78219 c -6.14049,-2.78927 -10.93652,-9.10851 -22.89723,-30.16936 -12.27333,-21.6113 -14.14438,-26.77572 -12.53078,-34.58707 3.2989,-15.96977 25.30852,-27.21897 39.66119,-20.27096 5.80898,2.81208 9.11124,7.1805 21.65525,28.64682 13.33159,22.81411 13.98056,24.40811 13.48779,33.1289 -0.46478,8.22556 -3.35189,13.29038 -10.60244,18.59971 -8.94367,6.54915 -20.48823,8.4156 -28.77378,4.65196 z m 19.73895,-17.16792 c 2.5663,-2.56631 2.95834,-3.58897 2.48767,-6.48934 -0.66075,-4.07178 -22.08811,-41.95585 -25.57334,-45.21427 -3.51371,-3.28505 -8.50916,-3.00926 -12.19149,0.67308 -3.85306,3.85306 -3.73558,6.87688 0.59207,15.23949 6.9216,13.37505 19.59166,34.37836 22.07105,36.58743 3.74727,3.33872 8.79779,3.01986 12.61404,-0.79639 z m 299.73133,1.98453 c -5.2632,-0.82996 -13.218,-4.62542 -17.8329,-8.50854 -6.3716,-5.36135 -9.5894,-16.24914 -7.1055,-24.04193 0.6816,-2.13822 5.5116,-13.21819 10.7333,-24.62216 12.8784,-28.12561 17.1461,-32.76551 30.1371,-32.76551 11.5252,0 24.1109,7.33163 28.258,16.46129 2.2498,4.95295 2.3935,12.82727 0.3404,18.64658 -4.0764,11.55357 -19.1021,43.27997 -22.226,46.9296 -5.7882,6.76216 -13.0999,9.35212 -22.3044,7.90067 z m 8.2576,-18.99197 c 2.38,-3.1906 19.7613,-41.44876 20.493,-45.10711 0.7362,-3.68084 -1.8432,-7.59058 -6.2121,-9.41602 -3.8092,-1.59158 -6.891,-0.85081 -9.7727,2.34905 -2.937,3.26136 -20.6722,43.42208 -20.6854,46.84155 -0.014,3.53664 3.8284,8.05958 7.3149,8.61128 3.5645,0.56405 6.9226,-0.67834 8.8623,-3.27875 z m -263.10796,2.40701 c -3.79987,-1.89356 -6.1439,-3.95686 -8.23641,-7.25 -2.86889,-4.51498 -14.38194,-38.14585 -16.8536,-49.23121 -2.99501,-13.43251 2.90289,-23.76036 16.84315,-29.49415 10.26852,-4.22356 21.92116,-2.82355 28.5089,3.42523 4.33795,4.11475 6.83586,9.84733 14.24735,32.69695 7.85947,24.23075 8.50629,29.65905 4.50889,37.83986 -6.03715,12.35524 -25.99878,18.50121 -39.01828,12.01332 z m 19.64195,-14.3259 c 3.53653,-2.15631 4.85769,-5.53557 3.82254,-9.77728 -0.36911,-1.5125 -3.61707,-11.94629 -7.21769,-23.1862 -6.90946,-21.56901 -9.41305,-26.06824 -14.50109,-26.06006 -3.47651,0.006 -8.68655,3.58878 -9.41014,6.47181 -0.91818,3.65834 -0.12623,6.92297 7.10492,29.2884 5.54565,17.15227 6.9339,20.44163 9.55977,22.65115 3.67569,3.09288 6.32333,3.24519 10.64169,0.61218 z m 164.27684,7.57254 c -7.70262,-1.80805 -10.23056,-2.98535 -14.54589,-6.77426 -8.85999,-7.77917 -9.32695,-14.98051 -2.90143,-44.74467 5.0852,-23.55551 6.05129,-26.42131 10.68661,-31.70064 4.50239,-5.12795 9.84868,-7.33162 17.85178,-7.35829 12.9531,-0.0432 22.1416,4.66644 26.5052,13.58525 2.2983,4.69754 2.5733,6.32259 2.2552,13.32673 -0.1992,4.38726 -0.8551,8.46966 -1.4574,9.072 -0.7936,0.79354 -3.133,0.71549 -8.4946,-0.28343 l -7.39947,-1.3786 0.27885,-5.89519 c 0.46802,-9.8937 -2.05859,-13.44872 -9.55812,-13.44872 -4.25815,0 -6.37549,1.64666 -8.16312,6.34848 -1.85357,4.87526 -9.05761,41.59179 -9.05761,46.16355 0,5.44468 3.27523,8.48797 9.13486,8.48797 4.78241,0 7.33786,-2.35017 8.90829,-8.19269 2.4038,-8.94289 2.569,-9.1358 7.24496,-8.45981 2.31656,0.3349 5.89936,1.08986 7.96186,1.6777 3.1496,0.89769 3.7483,1.50157 3.7392,3.7718 -0.013,3.21507 -2.2372,10.85913 -4.3212,14.85053 -4.8815,9.34893 -16.53377,13.80056 -28.66797,10.95229 z M 412.56093,205.9378 c -0.78029,-2.43267 -7.68014,-80.62795 -7.36066,-83.41762 0.29598,-2.58446 0.76203,-2.88932 5.32437,-3.48282 2.75,-0.35774 10.65662,-0.98327 17.57027,-1.39006 10.45874,-0.61539 13.41106,-0.46036 17.57558,0.92287 6.99814,2.32441 12.12565,7.98818 14.49143,16.00702 1.09263,3.70348 4.83163,38.14839 4.84992,44.67911 0.022,7.86408 -2.48856,14.21715 -7.41156,18.75501 -5.35467,4.93576 -10.9051,6.67015 -25.99932,8.1242 -14.30621,1.37813 -18.5487,1.33408 -19.04003,-0.19771 z m 30.39664,-17.54925 c 4.27057,-3.18844 4.59923,-6.63275 2.63134,-27.57617 -1.80476,-19.2073 -3.10169,-24.793 -6.32488,-27.24029 -1.03098,-0.7828 -4.48849,-1.33364 -8.48939,-1.35249 -5.91195,-0.0279 -6.75,0.19785 -6.75,1.81789 0,1.01732 1.12288,13.72982 2.49529,28.25 1.37241,14.52017 2.49741,27.02577 2.5,27.79021 0.007,2.04856 10.66077,0.75739 13.93764,-1.68915 z"
         id="path1"
         sodipodi:nodetypes="ssssssssssssssssssssssssssssssssssssssssssssssssscsssssssssssssssssssscsssssssssssscssssssssssssssscssssssssscccssssssscsscssssssssscsssssscssssscssssssscsccsssssssssssssssssssssssssssssssccssssscsssscssssscsssssssssssssssssssscccsssssssssssssscssssssssscssssccsssssssssssscssssscsssssscsssssscsssssssssssssssssssssscsssssssssssssssssssssssssssssssssscssssscssssssssssscssscsssssscsssssssssssssscssscssscssssccccssccssssssssssscsssssscssssscssccsssssssssssssssssssscccssssscsssssssssssssssssssssccsssssssssssssscssscccssscsssssssscssssssssscccssssssssssssssssssssssssscsssssssscccsssssssssssssscsssssscsssscsscsssssssscccssscssssccssscsssssssssssssssssssssssssssssssssssssssssssssssssssscsscsssscssssssssssssscsssssssssssssssssssssssssssssssssscssssssscssscssssscssscsssssssssssssssssscccssssssssssssscsscsssscssssssssssssssssssssssscssssssssscsssssssssssssssscsscssssssssssssssssssssssssssssssscsssssscssssssssssssscssssssssssssscssssssssscsssssssssssssssssssss" />
    </g>
  </g>
</svg>
